<svg width="75" height="75" viewBox="0 0 75 75" fill="none" xmlns="http://www.w3.org/2000/svg">
<path d="M20.3064 35.2239V42.6356L19.3947 43.263C17.2998 44.7045 16.0492 47.0827 16.0492 49.6248C16.0492 53.8837 19.516 57.3488 23.7774 57.3488H51.2645C55.5257 57.3488 58.9927 53.8838 58.9927 49.6185C58.9927 47.0813 57.7456 44.7056 55.6569 43.2634L54.7492 42.6368V35.2241C54.7492 27.9848 50.0856 21.6552 43.2759 19.4591L46.3023 8.56948H28.7534L31.7799 19.4591C24.9701 21.6551 20.3064 27.9847 20.3064 35.2239ZM31.6457 10.7666H43.4098L41.0893 19.1162H33.9664L31.6457 10.7666ZM33.2771 21.3135H41.7783C48.1269 22.9575 52.5506 28.6585 52.5506 35.2239V43.7893L54.4073 45.0712C55.9018 46.103 56.7941 47.8028 56.7941 49.6248C56.7941 52.6723 54.3135 55.1515 51.2644 55.1515H23.7774C20.7283 55.1515 18.2477 52.6723 18.2477 49.6248C18.2477 47.8059 19.1424 46.1043 20.6415 45.0728L22.5049 43.7903V35.2241C22.5049 28.6585 26.9287 22.9575 33.2771 21.3135ZM29.6064 35.2295C29.6064 32.5641 31.7761 30.3955 34.443 30.3955H36.4216V26.2207H38.6201V30.3955H44.3361V32.5928H34.443C32.9884 32.5928 31.8049 33.7756 31.8049 35.2295C31.8049 36.6833 32.9884 37.8662 34.443 37.8662H40.5987C43.2656 37.8662 45.4354 40.0348 45.4354 42.7002C45.4354 45.3656 43.2656 47.5342 40.5987 47.5342H38.6201V51.709H36.4216V47.5342H30.7056V45.3369H40.5987C42.0534 45.3369 43.2369 44.1541 43.2369 42.7002C43.2369 41.2463 42.0534 40.0635 40.5987 40.0635H34.443C31.7761 40.0635 29.6064 37.8949 29.6064 35.2295ZM2.20076 37.1344L0.00244141 37.1123C0.0100628 36.3605 0.0404016 35.6002 0.0925785 34.8521L2.28577 35.0051C2.23652 35.7097 2.20794 36.4261 2.20076 37.1344ZM2.70714 43.5019C3.39995 47.5455 4.7844 51.4049 6.82194 54.9731L4.91264 56.0624C2.74759 52.2707 1.27653 48.1696 0.540186 43.8727L2.70714 43.5019ZM2.41093 41.3916L0.225512 41.6309C0.14373 40.8848 0.0834915 40.1259 0.0465573 39.3749L2.24224 39.2667C2.27712 39.9741 2.33384 40.6891 2.41093 41.3916ZM2.4977 32.8856L0.317701 32.6013C1.48655 23.6509 5.8741 15.4121 12.6723 9.4021C19.5307 3.33911 28.3555 0 37.5209 0C42.7674 0 47.8439 1.06187 52.6088 3.15615C56.3978 4.82153 59.8409 7.07183 62.8765 9.85986V5.27344H65.075V13.6963H56.6475V11.499H61.4125C54.8852 5.48379 46.4933 2.19727 37.5209 2.19727C19.8391 2.19727 4.78235 15.3902 2.4977 32.8856ZM72.7774 35.3297L74.9719 35.1967C75.0173 35.9459 75.0408 36.7072 75.0415 37.4594L72.843 37.4615C72.8422 36.7526 72.8202 36.0354 72.7774 35.3297ZM72.264 31.0992L74.4264 30.7036C74.5617 31.4414 74.6761 32.1946 74.7669 32.9418L72.5844 33.2065C72.4989 32.5028 72.3912 31.7938 72.264 31.0992ZM72.7819 39.5921L74.9767 39.7203C73.8203 59.5033 57.3677 75 37.5209 75C26.9147 75 16.9954 70.6105 9.89349 62.8708V67.2363H7.69502V58.8135H16.1225V61.0107H11.1714C17.879 68.5302 27.3665 72.8027 37.5209 72.8027C56.2051 72.8027 71.6934 58.2149 72.7819 39.5921ZM71.8164 29.0161C70.8087 24.9343 69.0898 21.0973 66.7074 17.6118L68.5226 16.3724C71.0539 20.0752 72.8801 24.1521 73.9508 28.4896L71.8164 29.0161Z" fill="#787878"/>
</svg>
