<svg width="88" height="75" viewBox="0 0 88 75" fill="none" xmlns="http://www.w3.org/2000/svg">
<path d="M20.1793 39.0232C24.2957 39.0232 28.2557 37.8178 31.6306 35.5376C34.6833 33.4751 37.0639 30.6742 38.5572 27.4005H43.8731L47.9366 24.3657L52.9912 27.6375L58.4962 24.2968L64.3104 27.718L69.4945 22.8469L75.1225 27.4005H80.0914L87.4021 19.5137L80.0914 11.6269H38.5572C37.0641 8.35324 34.6833 5.55233 31.6306 3.4898C28.2557 1.20959 24.2957 0.00415039 20.1793 0.00415039C9.0995 0.00415039 0.0855056 8.75605 0.0855056 19.5137C0.0855056 30.2713 9.0995 39.0232 20.1793 39.0232ZM20.1793 2.49473C27.3325 2.49473 33.8947 6.8476 36.5085 13.3263L36.8276 14.1174H78.949L83.9511 19.5137L78.949 24.91H76.0514L69.3666 19.5012L63.9479 24.5925L58.4754 21.3722L53.0357 24.673L47.8296 21.3033L43.0006 24.91H36.8276L36.5085 25.7011C33.8947 32.18 27.3325 36.5327 20.1793 36.5327C10.5139 36.5327 2.65067 28.898 2.65067 19.5137C2.65067 10.1294 10.5139 2.49473 20.1793 2.49473ZM86.6713 51.2654C83.8344 47.4092 79.1106 46.3103 74.9164 48.5318L60.6325 56.0965C60.0456 53.8256 57.9261 52.1386 55.4076 52.1386H43.7831C43.0975 50.7942 41.6684 48.2336 40.2658 47.2272C31.969 39.9444 17.5493 46.4531 15.2595 47.5598H11.2012V44.3365H0V46.8271H8.63606V65.9215H0V68.4121H11.2012V65.1778H18.7013L50.6921 75.0042L87.5086 52.4043L86.6713 51.2654ZM50.3293 72.2804L19.2863 62.7453L19.0975 62.6872H11.2012V50.0504H15.8825L16.1621 49.9081C16.3102 49.8329 31.0767 42.44 38.5909 49.1149L38.6531 49.1702L38.7222 49.2172C39.6065 49.8166 41.0596 52.3184 41.8091 53.9035L42.1524 54.6294H55.4076C56.9635 54.6294 58.2293 55.8584 58.2293 57.369C58.2293 58.8796 56.9635 60.1087 55.4076 60.1087H37.9645V62.5992H55.4076C57.7958 62.5992 59.8248 61.082 60.5289 58.9886L76.1449 50.7183C78.8156 49.304 81.6901 49.7302 83.7592 51.7594L50.3293 72.2804ZM20.1793 33.2119C27.9586 33.2119 34.2877 27.0668 34.2877 19.5137C34.2877 11.9606 27.9586 5.8155 20.1793 5.8155C12.4 5.8155 6.0709 11.9606 6.0709 19.5137C6.0709 27.0668 12.4 33.2119 20.1793 33.2119ZM20.1793 8.30608C26.5443 8.30608 31.7226 13.3337 31.7226 19.5137C31.7226 25.6937 26.5443 30.7213 20.1793 30.7213C13.8143 30.7213 8.63606 25.6937 8.63606 19.5137C8.63606 13.3337 13.8143 8.30608 20.1793 8.30608Z" fill="#787878"/>
</svg>
