<svg width="80" height="75" viewBox="0 0 80 75" fill="none" xmlns="http://www.w3.org/2000/svg">
<path d="M70.9063 54.875C72.1791 52.6674 71.5258 51.0337 71.7025 46.3561L73.9851 39.223H62.7006C60.3266 39.223 58.3953 41.0337 58.3953 43.2592V45.0939C58.5868 51.0125 57.8979 52.6272 59.1895 54.8712C56.4615 55.9603 54.1411 57.7901 52.5235 60.1151C50.8359 57.6986 48.4708 55.9242 45.8574 54.875C47.1303 52.6672 46.4764 51.0384 46.6536 46.3301L48.5489 39.2229H31.4511L33.3464 46.3303C33.5255 51.0871 32.8751 52.6768 34.1426 54.8751C31.5335 55.9228 29.1665 57.6953 27.4765 60.1153C25.8589 57.7901 23.5385 55.9605 20.8105 54.8713C21.3166 53.9919 21.6047 52.9863 21.6047 51.9189C21.6047 50.9076 21.6047 44.2057 21.6047 43.2594C21.6047 41.0339 19.6734 39.2232 17.2994 39.2232H6.01487L8.29746 46.3561C8.47656 51.0934 7.82779 52.6794 9.0937 54.875C3.68955 57.0448 0 62.0171 0 67.77V74.9618H2.34834V67.77C2.34834 62.7426 5.65432 58.3576 10.6416 56.6656C13.1299 58.6542 16.774 58.654 19.2623 56.6643C22.255 57.6845 24.7302 59.7403 26.1808 62.4087C24.4499 66.32 25.2622 68.9766 25.0491 74.9618H27.3974V67.77C27.3974 62.7426 30.7034 58.3576 35.6906 56.6656C38.1788 58.654 41.8218 58.6539 44.3098 56.6656C49.2967 58.3576 52.6027 62.7426 52.6027 67.77V74.9618H54.9511C54.7383 68.9899 55.5512 66.3224 53.8193 62.4087C55.27 59.7403 57.7451 57.6845 60.7379 56.6643C63.2255 58.6535 66.8697 58.6546 69.3586 56.6656C74.3457 58.3576 77.6517 62.7426 77.6517 67.77V74.9618H80V67.77C80 62.0331 76.326 57.051 70.9063 54.875ZM19.2564 51.9187C19.2564 54.1442 17.3251 55.9549 14.9511 55.9549C12.5771 55.9549 10.6458 54.1442 10.6458 51.9187V47.2954H19.2564V51.9187ZM19.2564 45.0939H10.3452L9.17104 41.4246H17.2994C18.3786 41.4246 19.2564 42.2475 19.2564 43.2592V45.0939ZM44.3053 51.9187C44.3053 54.1442 42.374 55.9549 40 55.9549C37.626 55.9549 35.6947 54.1442 35.6947 51.9187V47.2954H44.3053V51.9187ZM44.5627 45.0939H35.4373L34.4589 41.4246H45.5411L44.5627 45.0939ZM69.3542 51.9187C69.3542 54.1442 67.4229 55.9549 65.0489 55.9549C62.6749 55.9549 60.7436 54.1442 60.7436 51.9187V47.2954H69.3542V51.9187ZM69.6548 45.0939H60.7436V43.2592C60.7436 42.2475 61.6215 41.4246 62.7006 41.4246H70.829L69.6548 45.0939ZM70.9198 66.449H73.2681V74.9618H70.9198V66.449ZM57.1429 66.449H59.4912V74.9618H57.1429V66.449ZM6.7319 66.449H9.08023V74.9618H6.7319V66.449ZM20.5088 66.449H22.8571V74.9618H20.5088V66.449ZM31.7808 66.449H34.1292V74.9618H31.7808V66.449ZM45.8708 66.449H48.2192V74.9618H45.8708V66.449ZM14.9004 36.3178L26.1608 31.5909H33.3464L40 36.2692L46.6536 31.5909H53.8391L65.0995 36.3178L67.7887 31.5909H74.8337V0.0351562H5.16634V31.5909H12.2114L14.9004 36.3178ZM7.51468 2.23672H72.4853V29.3894H66.3796L64.0589 33.4687L54.3408 29.3894H45.8708L40 33.5173L34.1292 29.3894H25.659L15.941 33.4687L13.6204 29.3894H7.51468V2.23672ZM34.9119 21.2993V27.9216H45.0881V21.2993C53.5214 16.4945 49.8392 4.29152 40 4.29152C30.1666 4.29152 26.4715 16.4905 34.9119 21.2993ZM42.7397 25.7201H37.2603V21.904H42.7397V25.7201ZM40 6.49308C47.7439 6.49308 50.3422 16.3361 43.3793 19.6741L43.3201 19.7025H41.1742V15.4461H43.9139V13.2445H36.0861V15.4461H38.8258V19.7025H36.6799L36.6207 19.6741C29.6706 16.3421 32.2356 6.49308 40 6.49308ZM26.8493 14.5655H21.2133V12.3639H26.8493V14.5655ZM27.2715 17.3829L28.932 18.9397L25.1746 22.4622L23.5142 20.9054L27.2715 17.3829ZM27.2715 9.5465L23.5142 6.024L25.1746 4.4672L28.932 7.9897L27.2715 9.5465ZM53.1507 12.3639H58.7867V14.5655H53.1507V12.3639ZM54.8254 22.4624L51.068 18.9398L52.7285 17.3831L56.4858 20.9056L54.8254 22.4624ZM52.7285 9.5465L51.068 7.9897L54.8254 4.4672L56.4858 6.024L52.7285 9.5465Z" fill="#787878"/>
</svg>
