<svg width="84" height="75" viewBox="0 0 84 75" fill="none" xmlns="http://www.w3.org/2000/svg">
<path d="M57.3737 12.8362V5.47875C57.3737 2.82236 55.36 0.661377 52.885 0.661377H28.4012C25.9261 0.661377 23.9125 2.82236 23.9125 5.47875V12.8362H0V37.2105L2.36677 37.7215V68.5425C2.36677 72.1648 5.11255 75.1117 8.48772 75.1117H75.0837C78.4589 75.1117 81.2047 72.1648 81.2047 68.5425V37.7215L83.5714 37.2105V12.8362H57.3737ZM26.3609 5.47875C26.3609 4.27125 27.2761 3.28903 28.4012 3.28903H52.885C54.0102 3.28903 54.9254 4.27125 54.9254 5.47875V6.79258H26.3609V5.47875ZM26.3609 9.42024H54.9254V12.8362H26.3609V9.42024ZM78.7563 60.3968H60.3934V63.0245H78.7563V65.8273H65.2902V68.4549H78.7563V68.5425C78.7563 70.716 77.1087 72.484 75.0837 72.484H8.48772C6.46258 72.484 4.81515 70.716 4.81515 68.5425V68.4549H18.4445V65.8273H4.81515V63.0245H23.3412V60.3968H4.81515V38.2502L22.7585 42.1246C22.6585 42.9744 41.7857 44.7184 41.7857 44.7184C41.7857 44.7184 60.913 42.9742 60.8129 42.1246L78.7563 38.2502V60.3968ZM81.123 35.0588L60.3507 39.5442L41.7857 42.2337L23.2208 39.5442L2.44838 35.0588V15.4638H81.123V35.0588Z" fill="#787878"/>
</svg>
