<svg width="98" height="73" viewBox="0 0 98 73" fill="none" xmlns="http://www.w3.org/2000/svg">
<path d="M89.8444 38.078L82.9721 24.155H64.4885V6.95473C64.4885 3.54888 61.7151 0.777832 58.306 0.777832H6.18252C2.77358 0.777832 0 3.54888 0 6.95473V62.5468H9.56123C10.0918 68.3989 15.0273 73.0001 21.0206 73.0001C27.0138 73.0001 31.9492 68.3989 32.4799 62.5468H67.9625C68.493 68.3989 73.4286 73.0001 79.4219 73.0001C85.4151 73.0001 90.3505 68.3989 90.8812 62.5468H97.3985V46.4869C97.3985 42.1308 94.0855 38.5333 89.8444 38.078ZM21.0206 70.1492C16.2479 70.1492 12.365 66.2699 12.365 61.5015C12.365 56.7331 16.2479 52.8539 21.0206 52.8539C25.7933 52.8539 29.6761 56.7331 29.6761 61.5015C29.6761 66.2699 25.7933 70.1492 21.0206 70.1492ZM61.635 59.696H58.5913V51.8085H55.7378V59.696H52.0601V51.8085H49.2066V59.696H45.5289V51.8085H42.6754V59.696H38.9975V51.8085H36.144V59.696H32.3865C31.5168 54.2105 26.7519 50.003 21.0206 50.003C15.2893 50.003 10.5244 54.2105 9.65463 59.696H2.85347V53.7091H8.4653V50.8582H2.85347V47.1521H61.635V59.696ZM61.635 44.3012H2.85347V6.95473C2.85347 5.12086 4.34698 3.62871 6.18252 3.62871H58.306C60.1415 3.62871 61.635 5.12086 61.635 6.95473V44.3012ZM71.3368 27.0059H81.1977L86.6388 38.0293H71.3368V27.0059ZM79.4217 70.1492C74.6489 70.1492 70.7661 66.2699 70.7661 61.5015C70.7661 56.7331 74.6489 52.8539 79.4217 52.8539C84.1944 52.8539 88.0772 56.7331 88.0772 61.5015C88.0772 66.2699 84.1944 70.1492 79.4217 70.1492ZM94.5451 59.696H90.7876C89.9179 54.2105 85.1528 50.003 79.4217 50.003C73.6906 50.003 68.9254 54.2105 68.0557 59.696H64.4885V27.0059H68.4833V40.8802H88.046H88.9332C92.0277 40.8802 94.5451 43.3952 94.5451 46.4869V59.696ZM69.9101 43.2559H75.2366V46.1068H69.9101V43.2559ZM21.0206 65.7778C18.6604 65.7778 16.7404 63.8596 16.7404 61.5015C16.7404 59.1435 18.6604 57.2252 21.0206 57.2252C23.3808 57.2252 25.3008 59.1435 25.3008 61.5015C25.3008 63.8596 23.3808 65.7778 21.0206 65.7778ZM21.0206 60.0761C20.2338 60.0761 19.5938 60.7154 19.5938 61.5015C19.5938 62.2876 20.2338 62.927 21.0206 62.927C21.8074 62.927 22.4473 62.2876 22.4473 61.5015C22.4473 60.7154 21.8074 60.0761 21.0206 60.0761ZM79.4217 65.7778C77.0616 65.7778 75.1414 63.8596 75.1414 61.5015C75.1414 59.1435 77.0616 57.2252 79.4217 57.2252C81.7817 57.2252 83.7019 59.1435 83.7019 61.5015C83.7019 63.8596 81.7817 65.7778 79.4217 65.7778ZM79.4217 60.0761C78.6349 60.0761 77.9949 60.7154 77.9949 61.5015C77.9949 62.2876 78.6349 62.927 79.4217 62.927C80.2085 62.927 80.8484 62.2876 80.8484 61.5015C80.8484 60.7154 80.2085 60.0761 79.4217 60.0761Z" fill="#787878"/>
</svg>
