<svg width="83" height="75" viewBox="0 0 83 75" fill="none" xmlns="http://www.w3.org/2000/svg">
<path d="M63.2254 39.5155L51.7847 34.8668H35.076L34.9427 34.9989L19.5527 39.5283L4.57974 36.3075L0.0178068 60.8188L17.8633 63.3073C16.6979 67.5688 21.3589 70.9687 24.7218 68.2917C25.5335 71.0236 28.4632 72.2882 30.8422 71.0583C31.7911 73.959 35.2841 74.7691 37.3167 72.6262L37.5076 72.4249C38.5727 75.1775 41.945 75.8509 43.9104 73.7791L43.956 73.731C46.7284 74.6873 49.6918 74.1443 51.966 72.3996L64.1306 64.3393L82.5197 60.754L78.146 36.3062L63.2254 39.5155ZM2.89603 58.6477L6.49284 39.3222L15.1696 41.1887L11.701 59.8756L2.89603 58.6477ZM22.0804 66.6712C20.3436 66.6712 19.4513 64.435 20.6931 63.1259C23.3256 60.5619 23.6717 59.434 25.0074 59.434C26.745 59.434 27.6358 61.6709 26.3947 62.9792C23.7622 65.5432 23.4161 66.6712 22.0804 66.6712ZM30.2968 68.3724C28.4816 70.2861 25.6751 67.3807 27.5222 65.4334L30.4491 62.3476C32.1689 60.5344 34.8675 63.0234 33.4011 65.0683C32.0232 66.5026 30.9187 67.7026 30.2968 68.3724ZM39.1896 67.0381L35.5962 70.8266C34.3367 72.1542 32.2479 70.3701 33.3335 68.7844C34.6993 67.3362 32.4396 69.7421 37.0815 64.8018C38.4817 63.3257 40.588 65.5639 39.1896 67.0381ZM44.127 69.9374L42.1901 71.9795C40.7989 73.4459 38.6844 71.2163 40.0819 69.7431C41.7925 68.0921 42.0716 67.2405 43.073 67.2403C44.391 67.2403 45.0737 68.9393 44.127 69.9374ZM50.6341 70.2669C50.5305 70.3188 48.7124 71.9405 45.9661 71.5986C48.6387 68.5149 45.7377 63.6434 41.9227 64.8698C41.2517 62.1658 38.2626 60.9305 36.0272 62.4382C35.1333 59.4055 31.6231 58.1882 29.195 60.1209C28.6408 58.2553 26.9902 56.8838 25.0072 56.8838C22.2946 56.8838 21.3218 59.1505 19.3385 60.9407L14.1125 60.212L17.5486 41.7006L19.6417 42.1508L31.1483 38.7644L22.7809 47.0671L23.6607 47.9947C27.3486 51.8828 33.2367 52.0035 37.065 48.2698L38.8154 46.5627C45.4929 54.7193 49.8986 56.8493 61.26 63.2264L50.6341 70.2669ZM63.8728 61.7961C50.3406 54.2992 46.3543 52.3721 39.0582 42.8456L35.4128 46.4005C32.8598 48.8904 29.0833 49.0898 26.3382 47.0454L36.0416 37.417H51.3314L63.0142 42.164L66.4468 41.4258L70.0048 60.6007L63.8728 61.7961ZM72.3923 60.135L68.8258 40.9141L76.2153 39.3248L79.6839 58.7133L72.3923 60.135ZM11.0078 30.5653C14.5284 26.4099 22.0157 17.1388 22.0157 11.5747C22.0157 5.19999 17.0775 0.0136719 11.0078 0.0136719C4.93814 0.0136719 0 5.19999 0 11.5747C0 17.1386 7.48727 26.4097 11.0078 30.5653ZM11.0078 2.5639C15.7386 2.5639 19.5875 6.60619 19.5875 11.5747C19.5875 15.4055 14.0381 23.0079 11.0078 26.7268C7.9776 23.0079 2.4282 15.4055 2.4282 11.5747C2.4282 6.60619 6.27705 2.5639 11.0078 2.5639ZM16.8355 10.8947C16.8355 7.51968 14.2213 4.7741 11.0078 4.7741C7.79435 4.7741 5.18015 7.51968 5.18015 10.8947C5.18015 14.2696 7.79435 17.0152 11.0078 17.0152C14.2213 17.0152 16.8355 14.2696 16.8355 10.8947ZM7.60835 10.8947C7.60835 8.92588 9.13326 7.32433 11.0078 7.32433C12.8824 7.32433 14.4073 8.92588 14.4073 10.8947C14.4073 12.8634 12.8824 14.465 11.0078 14.465C9.13326 14.465 7.60835 12.8634 7.60835 10.8947ZM71.7128 30.5653C75.2333 26.4099 82.7206 17.1388 82.7206 11.5747C82.7206 5.19999 77.7824 0.0136719 71.7128 0.0136719C65.6431 0.0136719 60.7049 5.19999 60.7049 11.5747C60.7049 17.1386 68.1922 26.4097 71.7128 30.5653ZM71.7128 2.5639C76.4435 2.5639 80.2924 6.60619 80.2924 11.5747C80.2924 15.4055 74.743 23.0079 71.7128 26.7268C68.6825 23.0079 63.1331 15.4057 63.1331 11.5747C63.1331 6.60619 66.982 2.5639 71.7128 2.5639ZM77.5404 10.8947C77.5404 7.51968 74.9262 4.7741 71.7128 4.7741C68.4993 4.7741 65.8851 7.51968 65.8851 10.8947C65.8851 14.2696 68.4993 17.0152 71.7128 17.0152C74.9262 17.0152 77.5404 14.2696 77.5404 10.8947ZM68.3133 10.8947C68.3133 8.92588 69.8382 7.32433 71.7128 7.32433C73.5873 7.32433 75.1122 8.92588 75.1122 10.8947C75.1122 12.8634 73.5873 14.465 71.7128 14.465C69.8382 14.465 68.3133 12.8634 68.3133 10.8947ZM62.8094 29.7664V27.2161H65.2376V29.7664H62.8094ZM17.3211 29.7664V27.2161H19.7493V29.7664H17.3211ZM60.3812 29.7664H22.1775V27.2161H60.3812V29.7664Z" fill="#787878"/>
</svg>
