<svg width="70" height="70" viewBox="0 0 70 70" fill="none" xmlns="http://www.w3.org/2000/svg">
<path d="M1.17321 36.1727C1.81732 36.1727 2.34007 35.6511 2.34007 35.0058C2.34007 16.9907 16.997 2.33372 35.0122 2.33372C42.3949 2.33372 49.4556 4.80163 55.2012 9.33489H49.0145C48.3704 9.33489 47.8477 9.85648 47.8477 10.5018C47.8477 11.147 48.3704 11.6686 49.0145 11.6686H58.2502C58.3272 11.6756 58.3996 11.6768 58.4754 11.6686H59.5151V1.16686C59.5151 0.521587 58.9923 0 58.3482 0C57.7041 0 57.1814 0.521587 57.1814 1.16686V7.94632C50.9317 2.8098 43.158 0 35.0122 0C15.71 0 0.00634766 15.7036 0.00634766 35.0058C0.00634766 35.6511 0.529101 36.1727 1.17321 36.1727Z" fill="#787878"/>
<path d="M35.0118 9.33496C20.8566 9.33496 9.34082 20.8507 9.34082 35.0059C9.34082 49.1611 20.8566 60.6768 35.0118 60.6768C49.167 60.6768 60.6827 49.1611 60.6827 35.0059C60.6827 20.8507 49.167 9.33496 35.0118 9.33496ZM35.0118 58.3431C22.1436 58.3431 11.6745 47.874 11.6745 35.0059C11.6745 22.1378 22.1436 11.6687 35.0118 11.6687C47.8799 11.6687 58.349 22.1378 58.349 35.0059C58.349 47.874 47.8799 58.3431 35.0118 58.3431Z" fill="#787878"/>
<path d="M35.0121 17.5029C35.6562 17.5029 36.1789 16.9813 36.1789 16.336V14.0023C36.1789 13.357 35.6562 12.8354 35.0121 12.8354C34.368 12.8354 33.8452 13.357 33.8452 14.0023V16.336C33.8452 16.9813 34.368 17.5029 35.0121 17.5029Z" fill="#787878"/>
<path d="M35.0121 52.5088C34.368 52.5088 33.8452 53.0304 33.8452 53.6757V56.0094C33.8452 56.6546 34.368 57.1762 35.0121 57.1762C35.6562 57.1762 36.1789 56.6546 36.1789 56.0094V53.6757C36.1789 53.0304 35.6562 52.5088 35.0121 52.5088Z" fill="#787878"/>
<path d="M53.6815 36.1726H56.0152C56.6593 36.1726 57.1821 35.651 57.1821 35.0057C57.1821 34.3605 56.6593 33.8389 56.0152 33.8389H53.6815C53.0374 33.8389 52.5146 34.3605 52.5146 35.0057C52.5146 35.651 53.0374 36.1726 53.6815 36.1726Z" fill="#787878"/>
<path d="M16.3419 33.8389H14.0082C13.3641 33.8389 12.8413 34.3605 12.8413 35.0057C12.8413 35.651 13.3641 36.1726 14.0082 36.1726H16.3419C16.986 36.1726 17.5088 35.651 17.5088 35.0057C17.5088 34.3605 16.986 33.8389 16.3419 33.8389Z" fill="#787878"/>
<path d="M36.1788 29.3373V23.3373C36.1788 22.692 35.656 22.1704 35.0119 22.1704C34.3678 22.1704 33.845 22.692 33.845 23.3373V29.3373C31.838 29.8589 30.3445 31.6698 30.3445 33.839C30.3445 34.7025 30.5953 35.5006 31.0061 36.1949L21.3515 45.8495C20.8952 46.3058 20.8952 47.0432 21.3515 47.4995C21.579 47.727 21.8777 47.8414 22.1764 47.8414C22.4751 47.8414 22.7739 47.727 23.0014 47.4995L32.656 37.8449C33.3503 38.2556 34.1484 38.5065 35.0119 38.5065C37.586 38.5065 39.6793 36.4131 39.6793 33.839C39.6793 31.6698 38.1858 29.8589 36.1788 29.3373ZM35.0119 36.1727C33.7249 36.1727 32.6782 35.1261 32.6782 33.839C32.6782 32.552 33.7249 31.5053 35.0119 31.5053C36.2989 31.5053 37.3456 32.552 37.3456 33.839C37.3456 35.1261 36.2989 36.1727 35.0119 36.1727Z" fill="#787878"/>
<path d="M13.8788 61.4468C13.4937 61.9591 13.5988 62.6942 14.1238 63.0793C14.3222 63.231 14.5673 63.301 14.8123 63.301C15.174 63.301 15.5241 63.1493 15.7575 62.8342C16.1308 62.322 16.0258 61.5869 15.5124 61.2018C14.999 60.8167 14.265 60.9218 13.8788 61.4468Z" fill="#787878"/>
<path d="M8.44236 53.9907C8.06897 53.4784 7.33385 53.3489 6.80876 53.7235C6.28367 54.1085 6.16698 54.832 6.54038 55.3559C6.77375 55.6721 7.12381 55.846 7.49721 55.846C7.73058 55.846 7.96395 55.776 8.17399 55.6255C8.69791 55.2509 8.81576 54.5158 8.44236 53.9907Z" fill="#787878"/>
<path d="M8.89635 56.5345C8.41793 56.965 8.37126 57.7013 8.803 58.1786C9.0247 58.447 9.35142 58.5765 9.67814 58.5765C9.94652 58.5765 10.2266 58.4831 10.4483 58.2848C10.9267 57.853 10.9734 57.1179 10.5416 56.6395C10.1227 56.1494 9.38759 56.1144 8.89635 56.5345Z" fill="#787878"/>
<path d="M12.9117 59.0432C12.4449 58.6114 11.6981 58.6465 11.2664 59.1144C10.823 59.5916 10.858 60.3279 11.3364 60.7713C11.5581 60.9697 11.8382 61.0747 12.1182 61.0747C12.4332 61.0747 12.7483 60.9463 12.9817 60.7013C13.4134 60.2229 13.3901 59.4878 12.9117 59.056C12.9117 59.0432 12.9117 59.0432 12.9117 59.0432Z" fill="#787878"/>
<path d="M6.62221 51.1552C6.61054 51.1552 6.61054 51.1552 6.61054 51.1552C6.29549 50.5951 5.5837 50.3967 5.02361 50.7235C4.46351 51.0397 4.26515 51.7503 4.59187 52.3104C4.8019 52.6826 5.19864 52.8938 5.60704 52.8938C5.79373 52.8938 6.00377 52.8471 6.1788 52.7421C6.73889 52.4271 6.93726 51.7141 6.62221 51.1552Z" fill="#787878"/>
<path d="M68.7806 37.4796C68.804 37.4796 68.8156 37.4796 68.8273 37.4796C69.4574 37.4796 69.9708 36.9767 69.9942 36.3594C70.0175 35.7048 69.5158 35.168 68.874 35.1459C68.2322 35.1214 67.6838 35.6243 67.6605 36.2661C67.6371 36.9078 68.1377 37.4563 68.7806 37.4796Z" fill="#787878"/>
<path d="M1.47605 39.6617C2.11782 39.5905 2.58456 39.0188 2.51455 38.377C2.44454 37.7352 1.87278 37.2685 1.23101 37.3385C0.589232 37.3968 0.122488 37.9803 0.1925 38.6104C0.250843 39.2171 0.764261 39.6605 1.34769 39.6605C1.39437 39.6617 1.42937 39.6617 1.47605 39.6617Z" fill="#787878"/>
<path d="M2.12953 43.0921C2.75963 42.9638 3.16803 42.3453 3.02801 41.7152C2.89966 41.0851 2.28122 40.6755 1.65112 40.8156C1.02101 40.9439 0.612609 41.5635 0.752632 42.1936C0.85765 42.742 1.34773 43.1154 1.88449 43.1154C1.965 43.1154 2.04785 43.1154 2.12953 43.0921Z" fill="#787878"/>
<path d="M5.09364 48.133C4.83693 47.5495 4.14848 47.2812 3.55338 47.5379C2.96995 47.7946 2.70157 48.483 2.95828 49.077C3.15665 49.5087 3.57672 49.7783 4.0318 49.7783C4.18349 49.7783 4.34685 49.7432 4.49854 49.6721C5.0808 49.4165 5.34918 48.7281 5.09364 48.133Z" fill="#787878"/>
<path d="M3.89046 44.9824C3.70376 44.364 3.03865 44.0256 2.43188 44.224C1.81344 44.4223 1.47505 45.0758 1.67342 45.6954C1.83678 46.1854 2.29186 46.4993 2.78194 46.4993C2.89862 46.4993 3.02698 46.4877 3.14366 46.4527C3.7516 46.2543 4.08999 45.588 3.89046 44.9824Z" fill="#787878"/>
<path d="M34.3818 67.6663C33.74 67.6534 33.2033 68.168 33.1916 68.8086C33.1799 69.4632 33.6934 69.9871 34.3351 70C34.3468 70 34.3585 70 34.3585 70C35.0002 70 35.5137 69.4971 35.5253 68.8564C35.5358 68.2147 35.0236 67.6779 34.3818 67.6663Z" fill="#787878"/>
<path d="M60.8345 55.0058C60.4377 55.5076 60.5311 56.2439 61.0328 56.6394C61.2545 56.8028 61.4996 56.8845 61.7563 56.8845C62.0947 56.8845 62.4447 56.7328 62.6781 56.4282C63.0748 55.9265 62.9815 55.1913 62.4681 54.7958C61.9547 54.4002 61.2312 54.4924 60.8345 55.0058Z" fill="#787878"/>
<path d="M53.482 61.937C52.9569 62.2987 52.8169 63.0327 53.1903 63.5589C53.412 63.8856 53.7737 64.0607 54.1471 64.0607C54.3805 64.0607 54.6022 64.0023 54.8122 63.8623C55.3373 63.5006 55.4773 62.7666 55.1039 62.2404C54.7422 61.7036 54.0199 61.5752 53.482 61.937Z" fill="#787878"/>
<path d="M56.1669 59.882C55.6768 60.3021 55.6185 61.0372 56.0385 61.5273C56.2719 61.7957 56.5986 61.9369 56.9253 61.9369C57.1937 61.9369 57.4621 61.8435 57.6838 61.6568C58.1739 61.2368 58.2322 60.5016 57.8122 60.0116C57.3909 59.5215 56.657 59.4631 56.1669 59.882Z" fill="#787878"/>
<path d="M64.3687 51.854C63.8203 51.5157 63.0968 51.6907 62.7584 52.2274C62.4201 52.7759 62.5834 53.4993 63.1318 53.8377C63.3302 53.9556 63.5402 54.0127 63.7503 54.0127C64.1353 54.0127 64.5204 53.826 64.7421 53.4632C65.0817 52.9171 64.9183 52.1924 64.3687 51.854Z" fill="#787878"/>
<path d="M58.6293 57.5613C58.1742 58.0269 58.1976 58.762 58.6643 59.2066C58.886 59.4271 59.1777 59.5321 59.4694 59.5321C59.7728 59.5321 60.0879 59.4154 60.3096 59.1704C60.753 58.7037 60.7413 57.9685 60.2746 57.5251C59.8078 57.0817 59.0715 57.0946 58.6293 57.5613Z" fill="#787878"/>
<path d="M68.6747 38.6337C68.0446 38.5415 67.4495 38.9966 67.3562 39.6267C67.2628 40.2685 67.7062 40.8519 68.348 40.9453C68.4063 40.9569 68.4647 40.9569 68.5114 40.9569C69.0831 40.9569 69.5849 40.538 69.6665 39.9546C69.7611 39.3233 69.3177 38.7271 68.6747 38.6337Z" fill="#787878"/>
<path d="M68.1275 42.0875C67.4974 41.9358 66.8673 42.3209 66.704 42.9393C66.5523 43.5694 66.9373 44.1995 67.5558 44.3629C67.6491 44.3874 67.7425 44.3979 67.8358 44.3979C68.3609 44.3979 68.8393 44.0362 68.9677 43.5111C69.131 42.8821 68.7448 42.252 68.1275 42.0875Z" fill="#787878"/>
<path d="M18.3247 63.0805C17.7646 62.755 17.0528 62.9288 16.7261 63.4901C16.3877 64.0385 16.5744 64.7619 17.1229 65.0887C17.3095 65.2054 17.5196 65.252 17.718 65.252C18.1147 65.252 18.4997 65.0537 18.7215 64.6803C19.0598 64.1307 18.8743 63.4189 18.3247 63.0805Z" fill="#787878"/>
<path d="M67.2159 45.4726C66.6092 45.2521 65.9324 45.566 65.7223 46.1728C65.5006 46.7807 65.804 47.4458 66.4108 47.6663C66.5392 47.713 66.6792 47.7375 66.8075 47.7375C67.2859 47.7375 67.741 47.4458 67.9044 46.9674C68.1273 46.3583 67.8227 45.6943 67.2159 45.4726Z" fill="#787878"/>
<path d="M65.957 48.7397C65.3853 48.4608 64.6735 48.693 64.3934 49.2764C64.1134 49.8599 64.3584 50.5611 64.9302 50.84C65.0936 50.9217 65.2686 50.9579 65.4436 50.9579C65.8754 50.9579 66.2954 50.7128 66.4938 50.3033C66.7738 49.7187 66.5405 49.0197 65.957 48.7397Z" fill="#787878"/>
<path d="M31.0093 67.4328C30.3675 67.3512 29.7958 67.8051 29.7141 68.448C29.6324 69.0898 30.0875 69.6732 30.7292 69.7421V69.7549C30.7759 69.7549 30.8226 69.7549 30.8693 69.7549C31.4527 69.7549 31.9544 69.3232 32.0245 68.7269C32.1061 68.0863 31.6499 67.5134 31.0093 67.4328Z" fill="#787878"/>
<path d="M24.4402 65.9277C23.8334 65.7165 23.1683 66.0327 22.9582 66.6511C22.7482 67.2579 23.0749 67.923 23.6817 68.133C23.8101 68.168 23.9384 68.1914 24.0668 68.1914C24.5452 68.1914 25.0003 67.888 25.1636 67.4096C25.3737 66.7911 25.0469 66.126 24.4402 65.9277Z" fill="#787878"/>
<path d="M27.6837 66.8495C27.0536 66.7095 26.4352 67.0945 26.2835 67.7247C26.1435 68.3548 26.5402 68.9849 27.1587 69.1249C27.252 69.1482 27.3337 69.1482 27.427 69.1482C27.9521 69.1482 28.4422 68.7865 28.5589 68.2497C28.7094 67.6196 28.3138 66.9895 27.6837 66.8495Z" fill="#787878"/>
<path d="M21.3128 64.6676C20.7177 64.3875 20.0293 64.6431 19.7609 65.2265C19.4925 65.8099 19.7376 66.5112 20.321 66.7784C20.4844 66.8496 20.6477 66.8834 20.8111 66.8834C21.2545 66.8834 21.6746 66.6384 21.8729 66.2078C22.1413 65.6244 21.8963 64.9348 21.3128 64.6676Z" fill="#787878"/>
<path d="M41.1029 67.1063C40.4728 67.223 40.0527 67.8414 40.1694 68.4715C40.2744 69.0316 40.7761 69.4179 41.3246 69.4179C41.3946 69.4179 41.4646 69.4179 41.5346 69.405C42.1647 69.2778 42.5848 68.6699 42.4681 68.0398C42.3514 67.398 41.733 66.9896 41.1029 67.1063Z" fill="#787878"/>
<path d="M44.3818 66.3127C43.7634 66.4866 43.4133 67.1412 43.6 67.7585C43.7517 68.2614 44.2185 68.5881 44.7202 68.5881C44.8252 68.5881 44.9419 68.5753 45.0586 68.5415C45.677 68.3548 46.0271 67.7001 45.8404 67.0829C45.6525 66.4761 45.0003 66.126 44.3818 66.3127Z" fill="#787878"/>
<path d="M47.5674 65.1692C46.9723 65.4142 46.6922 66.1027 46.9373 66.699C47.124 67.1424 47.5557 67.4096 48.0108 67.4096C48.1625 67.4096 48.3142 67.3862 48.4659 67.3291C49.061 67.0712 49.341 66.3944 49.096 65.7993C48.8381 65.2042 48.1625 64.9242 47.5674 65.1692Z" fill="#787878"/>
<path d="M37.7527 67.56C37.1109 67.6195 36.6325 68.1785 36.6909 68.8202C36.7375 69.4282 37.2509 69.8937 37.8577 69.8937C37.8811 69.8937 37.9161 69.8937 37.9511 69.8937V69.8821C38.5928 69.8354 39.0713 69.2753 39.0129 68.6335C38.9662 67.9929 38.3956 67.5133 37.7527 67.56Z" fill="#787878"/>
<path d="M50.6118 63.7105C50.04 64.0139 49.83 64.7257 50.1451 65.2869C50.3551 65.6837 50.7518 65.9042 51.1719 65.9042C51.3586 65.9042 51.5453 65.8575 51.7203 65.7525C52.2921 65.4491 52.5021 64.7373 52.1871 64.1772C51.8849 63.6055 51.1719 63.3954 50.6118 63.7105Z" fill="#787878"/>
</svg>
