<svg xmlns="http://www.w3.org/2000/svg" width="100%" height="100%" fill="none" viewBox="0 0 32 31"><g clip-path="url(#clip0)" fill="#45494E"><path d="M20.454.697A15.665 15.665 0 0015.82 0 15.523 15.523 0 004.802 4.54 15.357 15.357 0 00.237 15.5c0 3.373 1.07 6.58 3.096 9.274a15.713 15.713 0 007.854 5.529.457.457 0 00.572-.3.454.454 0 00-.3-.569 14.792 14.792 0 01-7.393-5.205A14.415 14.415 0 011.152 15.5c0-3.897 1.526-7.561 4.296-10.317A14.612 14.612 0 0115.82.91c1.488 0 2.956.22 4.363.656a.455.455 0 10.272-.869zm8.385 6.281a15.58 15.58 0 00-6.63-5.62.458.458 0 00-.604.229.454.454 0 00.229.601 14.667 14.667 0 016.24 5.29A14.472 14.472 0 0130.49 15.5c0 3.897-1.526 7.561-4.297 10.317A14.612 14.612 0 0115.82 30.09c-.936 0-1.873-.088-2.784-.262a.455.455 0 10-.173.894c.969.184 1.963.278 2.957.278 4.163 0 8.076-1.612 11.02-4.54a15.357 15.357 0 004.563-10.96c0-3.044-.886-5.991-2.564-8.522z" style="&#10;    transform: rotate(20deg);&#10;    transform-origin: center;&#10;"/><path d="M20.192 15.186l-6.415-5.857a.46.46 0 00-.646.027.453.453 0 00.028.643l6.047 5.522-6.001 5.48a.453.453 0 00.31.79c.11 0 .22-.04.309-.12l6.368-5.815a.453.453 0 000-.67z"/><path d="M20.454.697A15.665 15.665 0 0015.82 0 15.523 15.523 0 004.802 4.54 15.357 15.357 0 00.237 15.5c0 3.373 1.07 6.58 3.096 9.274a15.713 15.713 0 007.854 5.529.457.457 0 00.572-.3.454.454 0 00-.3-.569 14.792 14.792 0 01-7.393-5.205A14.415 14.415 0 011.152 15.5c0-3.897 1.526-7.561 4.296-10.317A14.612 14.612 0 0115.82.91c1.488 0 2.956.22 4.363.656a.455.455 0 10.272-.869zm8.385 6.281a15.58 15.58 0 00-6.63-5.62.458.458 0 00-.604.229.454.454 0 00.229.601 14.667 14.667 0 016.24 5.29A14.472 14.472 0 0130.49 15.5c0 3.897-1.526 7.561-4.297 10.317A14.612 14.612 0 0115.82 30.09c-.936 0-1.873-.088-2.784-.262a.455.455 0 10-.173.894c.969.184 1.963.278 2.957.278 4.163 0 8.076-1.612 11.02-4.54a15.357 15.357 0 004.563-10.96c0-3.044-.886-5.991-2.564-8.522z"/></g><defs><clipPath id="clip0"><path fill="#fff" transform="translate(.237)" d="M0 0h31.166v31H0z"/></clipPath></defs></svg>