<svg width="26" height="22" viewBox="0 0 26 22" fill="none" xmlns="http://www.w3.org/2000/svg">
<g clip-path="url(#clip0)">
<path d="M23.388 -0.0166016H2.61204C1.17178 -0.0166016 0 1.12158 0 2.52065V16.0448C0 17.4438 1.17178 18.582 2.61204 18.582H9.12387L12.4181 21.7819C12.5735 21.933 12.7802 22.0161 13.0001 22.0161C13.2199 22.0161 13.4266 21.9329 13.582 21.7819L16.9945 18.4671C17.1522 18.314 17.1522 18.0656 16.9945 17.9125C16.8368 17.7594 16.5812 17.7594 16.4235 17.9125L13.011 21.2273C13.0095 21.2288 13.0065 21.2317 13.0001 21.2317C12.9937 21.2317 12.9907 21.2288 12.9892 21.2273L9.57668 17.9125C9.50092 17.8389 9.39829 17.7976 9.29119 17.7976H2.61204C1.61698 17.7976 0.807473 17.0113 0.807473 16.0447V2.52065C0.807473 1.55413 1.61698 0.767754 2.61204 0.767754H23.388C24.383 0.767754 25.1925 1.55413 25.1925 2.52065V16.0448C25.1925 17.0113 24.383 17.7977 23.388 17.7977H19.0489C18.8259 17.7977 18.6452 17.9733 18.6452 18.1899C18.6452 18.4064 18.8259 18.582 19.0489 18.582H23.388C24.8282 18.582 26 17.4438 26 16.0448V2.52065C26 1.12158 24.8282 -0.0166016 23.388 -0.0166016Z" fill="#787878"/>
<path d="M22.2631 3.57471H3.73721C3.51423 3.57471 3.3335 3.75031 3.3335 3.96686C3.3335 4.18341 3.51423 4.35901 3.73721 4.35901H22.2631C22.4861 4.35901 22.6668 4.18341 22.6668 3.96686C22.6668 3.75031 22.4861 3.57471 22.2631 3.57471Z" fill="#787878"/>
<path d="M22.2631 6.87061H3.73721C3.51423 6.87061 3.3335 7.04621 3.3335 7.26276C3.3335 7.47931 3.51423 7.65491 3.73721 7.65491H22.2631C22.4861 7.65491 22.6668 7.47931 22.6668 7.26276C22.6668 7.04621 22.4861 6.87061 22.2631 6.87061Z" fill="#787878"/>
<path d="M22.2631 10.167H3.73721C3.51423 10.167 3.3335 10.3426 3.3335 10.5591C3.3335 10.7757 3.51423 10.9513 3.73721 10.9513H22.2631C22.4861 10.9513 22.6668 10.7757 22.6668 10.5591C22.6668 10.3425 22.4861 10.167 22.2631 10.167Z" fill="#787878"/>
<path d="M15.4827 13.4629H3.73721C3.51423 13.4629 3.3335 13.6385 3.3335 13.855C3.3335 14.0716 3.51423 14.2472 3.73721 14.2472H15.4827C15.7056 14.2472 15.8864 14.0716 15.8864 13.855C15.8864 13.6384 15.7056 13.4629 15.4827 13.4629Z" fill="#787878"/>
</g>
<defs>
<clipPath id="clip0">
<rect width="26" height="22" fill="white" transform="translate(0 -0.000488281)"/>
</clipPath>
</defs>
</svg>
