<svg width="16" height="16" viewBox="0 0 16 16" fill="none" xmlns="http://www.w3.org/2000/svg">
<path d="M1.27653 3.48832C2.0904 2.27189 3.23123 1.3137 4.57572 0.71734C4.69029 0.666464 4.82516 0.716862 4.87672 0.82987C4.92834 0.942878 4.87723 1.07568 4.76257 1.12656C3.4969 1.68795 2.4229 2.59005 1.65662 3.73535C0.870808 4.90986 0.45542 6.2776 0.45542 7.69078C0.45542 9.61251 1.21476 11.4193 2.59349 12.7781C3.97227 14.137 5.80543 14.8854 7.75531 14.8854C8.22126 14.8854 8.68745 14.8418 9.14101 14.7559C9.26476 14.7324 9.38381 14.8123 9.4075 14.9339C9.43119 15.0556 9.35036 15.1733 9.22689 15.1966C8.7451 15.2879 8.24998 15.3341 7.75531 15.3341C5.68383 15.3341 3.73635 14.539 2.27156 13.0954C0.806797 11.6518 0.000137329 9.73236 0.000137329 7.69075C0.000137329 6.18952 0.441485 4.73633 1.27653 3.48832Z" fill="#45494E"/>
<path d="M5.38709 0.34461C6.12275 0.11613 6.89008 0.000244141 7.66774 0.000244141C9.71638 0.000244141 11.6424 0.797023 13.091 2.24376C14.5396 3.69055 15.3374 5.61411 15.3374 7.66014C15.3374 9.32719 14.8105 10.912 13.8136 12.2433C12.8498 13.5304 11.4771 14.5007 9.94836 14.9756C9.92607 14.9825 9.90357 14.9858 9.88143 14.9858C9.78544 14.9858 9.69651 14.924 9.66653 14.8277C9.62958 14.7091 9.69589 14.5831 9.81462 14.5462C11.2535 14.0992 12.5456 13.1857 13.453 11.974C14.3912 10.721 14.8871 9.22937 14.8871 7.66014C14.8871 5.73422 14.1361 3.92358 12.7726 2.56176C11.409 1.19995 9.59612 0.449934 7.66774 0.449934C6.9355 0.449934 6.21314 0.558968 5.52083 0.774044C5.40195 0.810907 5.27591 0.74469 5.239 0.626112C5.20206 0.507533 5.26836 0.381504 5.38709 0.34461Z" fill="#45494E"/>
<circle cx="7.66842" cy="7.48337" r="5.92575" fill="#FECA40"/>
</svg>
