<svg width="16" height="16" viewBox="0 0 16 16" fill="none" xmlns="http://www.w3.org/2000/svg">
<path d="M1.44621 3.48365C2.25908 2.26873 3.3985 1.31172 4.74134 0.716095C4.85577 0.665281 4.99047 0.715618 5.04197 0.828486C5.09353 0.941355 5.04248 1.07399 4.92796 1.12481C3.66385 1.68551 2.59117 2.58649 1.82584 3.73038C1.04099 4.90344 0.626112 6.26949 0.626112 7.68093C0.626112 9.60029 1.38452 11.4048 2.76155 12.762C4.13863 14.1192 5.96954 14.8666 7.91702 14.8666C8.38239 14.8666 8.84801 14.8232 9.30101 14.7374C9.4246 14.7139 9.54351 14.7936 9.56717 14.9152C9.59083 15.0367 9.51011 15.1542 9.38678 15.1775C8.90559 15.2686 8.41108 15.3148 7.91702 15.3148C5.84809 15.3148 3.903 14.5207 2.44001 13.0789C0.977057 11.6371 0.17139 9.71999 0.17139 7.6809C0.17139 6.18152 0.612195 4.73013 1.44621 3.48365Z" fill="#45494E"/>
<path d="M5.55174 0.343945C6.28649 0.115744 7.05287 0 7.82957 0C9.87567 0 11.7993 0.795805 13.2461 2.24077C14.693 3.68579 15.4897 5.607 15.4897 7.65053C15.4897 9.31554 14.9635 10.8984 13.9678 12.2281C13.0052 13.5136 11.6343 14.4827 10.1074 14.957C10.0851 14.964 10.0626 14.9672 10.0405 14.9672C9.94464 14.9672 9.85583 14.9055 9.82588 14.8093C9.78899 14.6909 9.85521 14.565 9.97379 14.5282C11.4109 14.0818 12.7014 13.1694 13.6076 11.9591C14.5447 10.7077 15.04 9.21784 15.04 7.65053C15.04 5.72696 14.29 3.91854 12.9281 2.55839C11.5662 1.19823 9.75556 0.44914 7.82957 0.44914C7.09823 0.44914 6.37677 0.558041 5.68531 0.772853C5.56658 0.809671 5.4407 0.743536 5.40383 0.625102C5.36694 0.506668 5.43316 0.380793 5.55174 0.343945Z" fill="#45494E"/>
</svg>
