<svg width="20" height="25" viewBox="0 0 20 25" fill="none" xmlns="http://www.w3.org/2000/svg">
<path d="M18.9796 5.48813C18.9782 5.47412 18.9723 5.41474 18.9798 5.48999C18.9809 5.50097 18.9795 5.48652 18.9796 5.48813Z" fill="#FECA40"/>
<path d="M18.9799 5.49014C18.971 5.4002 18.9297 5.32339 18.8696 5.25757L13.7743 0.113477C13.7025 0.0416016 13.604 0 13.5022 0H2.32034C1.05705 0 0.0292969 1.02715 0.0292969 2.28975V3.38315C0.0292969 3.59453 0.200735 3.76587 0.412236 3.76587C0.623737 3.76587 0.795176 3.59453 0.795176 3.38315V2.28975C0.795176 1.44927 1.47932 0.765478 2.32029 0.765478H13.1192V3.62124C13.1192 4.88384 14.147 5.91099 15.4102 5.91099H18.2158V19.9669C18.2158 20.1783 18.3873 20.3496 18.5988 20.3496C18.8103 20.3496 18.9817 20.1783 18.9817 19.9669V5.52822C18.9818 5.51543 18.9811 5.50273 18.9799 5.49014ZM15.4103 5.14551C14.5693 5.14551 13.8851 4.46172 13.8851 3.62124V1.31338L17.6809 5.14551H15.4103Z" fill="#FECA40"/>
<path d="M18.5988 21.2635C18.3873 21.2635 18.2158 21.4349 18.2158 21.6462V22.7102C18.2158 23.5507 17.5317 24.2344 16.6907 24.2344H2.32029C1.47932 24.2344 0.795176 23.5507 0.795176 22.7102V5.16592C0.795176 4.95454 0.623737 4.7832 0.412236 4.7832C0.200735 4.7832 0.0292969 4.95454 0.0292969 5.16592V22.7102C0.0292969 23.9728 1.05705 24.9999 2.32034 24.9999H16.6907C17.954 24.9999 18.9818 23.9728 18.9818 22.7102V21.6462C18.9818 21.4348 18.8103 21.2635 18.5988 21.2635Z" fill="#FECA40"/>
<path d="M6.10098 14.2842C6.26333 13.9712 6.58756 13.7768 6.94715 13.7768H7.91586V10.5731C7.9159 9.7054 8.63955 8.99951 9.52903 8.99951C10.4185 8.99951 11.1422 9.7054 11.1422 10.5731V13.7768H12.0489C12.4092 13.7768 12.7338 13.9718 12.8958 14.2857C13.058 14.5996 13.0254 14.97 12.811 15.2525L10.2505 18.625C10.0697 18.863 9.79202 18.9995 9.48841 18.9995C9.48784 18.9995 9.48723 18.9995 9.48662 18.9995C9.18229 18.999 8.90442 18.8615 8.72418 18.6223L6.18302 15.2498C5.97007 14.9672 5.93862 14.5972 6.10098 14.2842ZM6.76432 14.8331L9.30548 18.2055C9.36456 18.2838 9.44515 18.2957 9.48793 18.2958C9.48808 18.2958 9.48822 18.2958 9.48836 18.2958C9.53124 18.2958 9.61164 18.2841 9.67076 18.2061L12.2313 14.8337C12.3064 14.7348 12.2705 14.6389 12.2516 14.6023C12.2327 14.5657 12.1751 14.4805 12.0489 14.4805H10.7814C10.5822 14.4805 10.4207 14.323 10.4207 14.1287V10.5731C10.4207 10.0934 10.0207 9.70319 9.52903 9.70319C9.03736 9.70319 8.63733 10.0934 8.63733 10.5731V14.1287C8.63733 14.323 8.47583 14.4805 8.27662 14.4805H6.9472C6.82128 14.4805 6.76362 14.5655 6.74469 14.602C6.72572 14.6385 6.68976 14.7341 6.76432 14.8331Z" fill="#FECA40"/>
</svg>
