<svg width="204" height="50" viewBox="0 0 204 50" fill="none" xmlns="http://www.w3.org/2000/svg">
<path d="M67.1631 22.0518C65.9561 22.0518 65.0068 22.4796 64.3154 23.3351C63.624 24.1905 63.2783 25.3712 63.2783 26.877C63.2783 28.4532 63.6094 29.6456 64.2715 30.4542C64.9395 31.2628 65.9033 31.6671 67.1631 31.6671C67.708 31.6671 68.2354 31.6143 68.7451 31.5089C69.2549 31.3976 69.7852 31.2569 70.3359 31.087V32.8888C69.3281 33.2696 68.1855 33.4601 66.9082 33.4601C65.0273 33.4601 63.583 32.8917 62.5752 31.755C61.5674 30.6124 61.0635 28.9806 61.0635 26.8595C61.0635 25.5235 61.3066 24.3546 61.793 23.3526C62.2852 22.3507 62.9941 21.5831 63.9199 21.0499C64.8457 20.5167 65.9326 20.2501 67.1807 20.2501C68.4932 20.2501 69.7061 20.5255 70.8193 21.0763L70.0635 22.8253C69.6299 22.6202 69.1699 22.4415 68.6836 22.2892C68.2031 22.131 67.6963 22.0518 67.1631 22.0518Z" fill="#45494E"/>
<path d="M81.3838 23.5636V33.2843H79.3096V25.1983H74.9502V33.2843H72.8848V23.5636H81.3838Z" fill="#45494E"/>
<path d="M88.5908 33.4601C87.0791 33.4601 85.8955 33.0206 85.04 32.1417C84.1904 31.2569 83.7656 30.0411 83.7656 28.4942C83.7656 26.9063 84.1611 25.6583 84.9521 24.7501C85.7432 23.8419 86.8301 23.3878 88.2129 23.3878C89.4961 23.3878 90.5098 23.7774 91.2539 24.5567C91.998 25.336 92.3701 26.4083 92.3701 27.7735V28.8897H85.8926C85.9219 29.8331 86.1768 30.5597 86.6572 31.0694C87.1377 31.5733 87.8145 31.8253 88.6875 31.8253C89.2617 31.8253 89.7949 31.7726 90.2871 31.6671C90.7852 31.5558 91.3184 31.3741 91.8867 31.1222V32.8009C91.3828 33.0411 90.873 33.211 90.3574 33.3106C89.8418 33.4102 89.2529 33.4601 88.5908 33.4601ZM88.2129 24.9522C87.5566 24.9522 87.0293 25.1602 86.6309 25.5763C86.2383 25.9923 86.0039 26.5987 85.9277 27.3956H90.3398C90.3281 26.5929 90.1348 25.9864 89.7598 25.5763C89.3848 25.1602 88.8691 24.9522 88.2129 24.9522Z" fill="#45494E"/>
<path d="M103.374 31.6847H104.78V36.7032H102.838V33.2843H94.7168V23.5636H96.7822V31.6495H101.309V23.5636H103.374V31.6847Z" fill="#45494E"/>
<path d="M113.851 23.5636V25.1808H110.687V33.2843H108.612V25.1808H105.448V23.5636H113.851Z" fill="#45494E"/>
<path d="M119.968 33.4601C118.456 33.4601 117.272 33.0206 116.417 32.1417C115.567 31.2569 115.143 30.0411 115.143 28.4942C115.143 26.9063 115.538 25.6583 116.329 24.7501C117.12 23.8419 118.207 23.3878 119.59 23.3878C120.873 23.3878 121.887 23.7774 122.631 24.5567C123.375 25.336 123.747 26.4083 123.747 27.7735V28.8897H117.27C117.299 29.8331 117.554 30.5597 118.034 31.0694C118.515 31.5733 119.191 31.8253 120.064 31.8253C120.639 31.8253 121.172 31.7726 121.664 31.6671C122.162 31.5558 122.695 31.3741 123.264 31.1222V32.8009C122.76 33.0411 122.25 33.211 121.734 33.3106C121.219 33.4102 120.63 33.4601 119.968 33.4601ZM119.59 24.9522C118.934 24.9522 118.406 25.1602 118.008 25.5763C117.615 25.9923 117.381 26.5987 117.305 27.3956H121.717C121.705 26.5929 121.512 25.9864 121.137 25.5763C120.762 25.1602 120.246 24.9522 119.59 24.9522Z" fill="#45494E"/>
<path d="M128.256 28.3185L124.995 23.5636H127.351L129.565 26.9649L131.798 23.5636H134.136L130.866 28.3185L134.303 33.2843H131.965L129.565 29.6456L127.175 33.2843H124.837L128.256 28.3185Z" fill="#45494E"/>
<path d="M138.073 23.5636V27.4659H142.652V23.5636H144.718V33.2843H142.652V29.0919H138.073V33.2843H136.008V23.5636H138.073Z" fill="#45494E"/>
<path d="M149.657 23.5636V28.547C149.657 29.127 149.61 29.9796 149.517 31.1046L154.395 23.5636H156.917V33.2843H154.931V28.3888C154.931 28.1192 154.945 27.6827 154.975 27.0792C155.01 26.4757 155.039 26.0362 155.062 25.7608L150.202 33.2843H147.68V23.5636H149.657Z" fill="#45494E"/>
<path d="M165.891 23.5636H168.158L164.142 28.2481L168.501 33.2843H166.128L161.927 28.3536V33.2843H159.861V23.5636H161.927V28.2833L165.891 23.5636Z" fill="#45494E"/>
<path d="M176.191 33.2843L175.778 31.9308H175.708C175.239 32.5226 174.768 32.9268 174.293 33.1436C173.818 33.3546 173.209 33.4601 172.465 33.4601C171.51 33.4601 170.763 33.2022 170.224 32.6866C169.69 32.171 169.424 31.4415 169.424 30.4981C169.424 29.4962 169.796 28.7403 170.54 28.2306C171.284 27.7208 172.418 27.4425 173.941 27.3956L175.62 27.3429V26.8243C175.62 26.2032 175.474 25.7403 175.181 25.4356C174.894 25.1251 174.445 24.9698 173.836 24.9698C173.338 24.9698 172.86 25.0431 172.403 25.1895C171.946 25.336 171.507 25.5089 171.085 25.7081L170.417 24.2315C170.944 23.9561 171.521 23.7481 172.148 23.6075C172.775 23.461 173.367 23.3878 173.924 23.3878C175.16 23.3878 176.092 23.6573 176.719 24.1964C177.352 24.7354 177.668 25.5821 177.668 26.7364V33.2843H176.191ZM173.115 31.878C173.865 31.878 174.466 31.67 174.917 31.254C175.374 30.8321 175.603 30.2433 175.603 29.4874V28.6436L174.354 28.6964C173.382 28.7315 172.673 28.8956 172.228 29.1886C171.788 29.4757 171.568 29.9181 171.568 30.5157C171.568 30.9493 171.697 31.2862 171.955 31.5265C172.213 31.7608 172.6 31.878 173.115 31.878Z" fill="#45494E"/>
<path d="M193.708 30.4806H191.977V33.2843H189.964V30.4806H184.093V28.8897L189.964 20.3995H191.977V28.7667H193.708V30.4806ZM189.964 28.7667V25.5411C189.964 24.3927 189.993 23.4522 190.052 22.7198H189.981C189.817 23.1065 189.56 23.5753 189.208 24.1261L186.018 28.7667H189.964Z" fill="#45494E"/>
<path d="M194.859 27.8087C194.859 22.7813 196.907 20.2677 201.003 20.2677C201.647 20.2677 202.192 20.3175 202.638 20.4171V22.1397C202.192 22.0108 201.677 21.9464 201.091 21.9464C199.714 21.9464 198.68 22.3155 197.988 23.0538C197.297 23.7921 196.922 24.9757 196.863 26.6046H196.969C197.244 26.13 197.631 25.7638 198.129 25.506C198.627 25.2423 199.213 25.1104 199.887 25.1104C201.053 25.1104 201.961 25.4679 202.611 26.1827C203.262 26.8976 203.587 27.8673 203.587 29.0919C203.587 30.4395 203.209 31.506 202.453 32.2911C201.703 33.0704 200.678 33.4601 199.377 33.4601C198.457 33.4601 197.657 33.2403 196.978 32.8009C196.298 32.3556 195.773 31.711 195.404 30.8673C195.041 30.0177 194.859 28.9981 194.859 27.8087ZM199.342 31.755C200.051 31.755 200.596 31.5265 200.977 31.0694C201.363 30.6124 201.557 29.9591 201.557 29.1095C201.557 28.3712 201.375 27.7911 201.012 27.3692C200.654 26.9474 200.115 26.7364 199.395 26.7364C198.949 26.7364 198.539 26.8331 198.164 27.0265C197.789 27.214 197.493 27.4747 197.276 27.8087C197.06 28.1368 196.951 28.4737 196.951 28.8194C196.951 29.6456 197.174 30.3429 197.619 30.9112C198.07 31.4737 198.645 31.755 199.342 31.755Z" fill="#45494E"/>
<rect x="1.77648" y="24.5685" width="33.2452" height="33.2452" rx="4.25" transform="rotate(-45 1.77648 24.5685)" fill="#FCE201" stroke="#45494E" stroke-width="1.5"/>
<path fill-rule="evenodd" clip-rule="evenodd" d="M27.3516 24.9322C27.3516 24.9322 27.6281 27.1942 25.2899 29.3805C22.9518 31.5666 22.8043 32.453 23.8672 33.428C24.9302 34.4029 27.0609 34.6559 28.4755 31.8031C29.2175 30.3062 29.8369 29.5353 30.2862 29.1114C30.7782 28.6473 31.1924 28.7352 31.4856 28.9668C32.0466 29.41 31.9581 29.8826 31.4265 30.4736C30.895 31.0645 31.0237 31.3927 31.0402 31.971C31.0645 32.8215 30.6425 37.1066 27.5621 38.4112C24.4816 39.716 20.1917 38.2789 19.3224 35.4427C18.4532 32.6064 19.1146 29.9593 20.3051 29.0707C21.4958 28.1821 23.5462 27.4432 23.4611 25.4781C23.4245 24.6331 23.4301 24.1385 23.4301 24.1385L23.84 24.1213L25.7856 24.1924H26.9761L27.3516 24.9322Z" fill="#45494E"/>
<path fill-rule="evenodd" clip-rule="evenodd" d="M29.4311 23.1525C29.4311 22.8251 29.1655 22.5594 28.8382 22.5594H21.7397C21.4125 22.5594 21.147 22.8251 21.147 23.1525V24.3387C21.147 24.6661 21.4125 24.9319 21.7397 24.9319H28.8382C29.1655 24.9319 29.4311 24.6661 29.4311 24.3387V23.1525Z" fill="#45494E"/>
<path fill-rule="evenodd" clip-rule="evenodd" d="M26.6841 9.88943L23.5207 10.5089L14.5298 22.7959H17.2226L26.6841 9.88943Z" fill="#45494E"/>
<path fill-rule="evenodd" clip-rule="evenodd" d="M29.6857 14.1L28.3283 12.3604L20.6055 22.7963H23.2983L29.6857 14.1Z" fill="#45494E"/>
<path fill-rule="evenodd" clip-rule="evenodd" d="M33.2661 18.3599L31.9087 16.6204L27.2852 22.7957H29.978L33.2661 18.3599Z" fill="#45494E"/>
<path fill-rule="evenodd" clip-rule="evenodd" d="M36.2638 22.8761L34.991 21.0561L33.2734 23.1829H35.9663L36.2638 22.8761Z" fill="#45494E"/>
<path fill-rule="evenodd" clip-rule="evenodd" d="M25.5632 9.59844L25.5784 9.59859L25.5935 9.59889L25.6085 9.59918L25.6236 9.59977L25.6387 9.60022L25.6536 9.60096L25.6685 9.60155L25.6834 9.60244L25.6983 9.60332L25.7133 9.60436L25.728 9.60539L25.7429 9.60657L25.7577 9.60776L25.7723 9.60923L25.7871 9.61056L25.8017 9.61204L25.8164 9.61367L25.831 9.61529L25.8456 9.61707L25.8601 9.61899L25.8747 9.62091L25.8892 9.62283L25.9035 9.62505L25.918 9.62711L25.9323 9.62933L25.9468 9.6317L25.9753 9.63657L26.0038 9.64175L26.0322 9.64736L26.0602 9.65312L26.0883 9.65918L26.1163 9.66554L26.1441 9.67219L26.1717 9.67913L26.1992 9.68638L26.2265 9.69391L26.2539 9.70175L26.2809 9.70973L26.3079 9.718L26.3347 9.72657L26.3614 9.73544L26.3878 9.74445L26.4143 9.75377L26.4406 9.76322L26.4666 9.77298L26.4926 9.78303L26.5183 9.79322L26.544 9.80357L26.5695 9.81421L26.5948 9.82514L26.62 9.83623L26.6451 9.84746L26.6699 9.85884L26.6948 9.87051L26.7193 9.88234L26.7438 9.89445L26.768 9.90657L26.7922 9.91899L26.8162 9.9314L26.84 9.94411L26.8636 9.95697L26.8871 9.96997L26.9104 9.98312L26.9336 9.99657L26.9566 10.01L26.9795 10.0235L27.0023 10.0372L27.0247 10.0511L27.0472 10.0651L27.0693 10.0792L27.0915 10.0934L27.1134 10.1077L27.1351 10.122L27.1566 10.1367L27.1779 10.1512L27.1992 10.1659L27.2202 10.1807L27.2411 10.1956L27.2618 10.2106L27.2823 10.2256L27.3027 10.2407L27.3228 10.2558L27.3429 10.271L27.3627 10.2864L27.3823 10.3016L27.4018 10.317L27.4212 10.3325L27.4402 10.3479L27.4593 10.3634L27.478 10.3789L27.4967 10.3944L27.515 10.4099L27.5333 10.4254L27.5513 10.4411L27.5692 10.4566L27.5869 10.4723L27.6043 10.4878L27.6216 10.5033L27.6388 10.519L27.6557 10.5345L27.6726 10.55L27.6891 10.5655L27.7055 10.5809L27.7216 10.5964L27.7377 10.6118L27.7535 10.6272L27.769 10.6424L27.7845 10.6576L27.7998 10.6728L27.8148 10.6879L27.8296 10.703L27.8444 10.7179L27.8587 10.7328L27.873 10.7476L27.9009 10.777L27.9281 10.806L27.9544 10.8347L27.98 10.8627L28.0046 10.8904L28.0284 10.9174L28.0516 10.944L28.0737 10.97L28.0952 10.9953L28.1157 11.02L28.1353 11.0439L28.1542 11.0671L28.1723 11.0896L28.1893 11.1112L28.2055 11.132L28.2209 11.1518L28.2353 11.1709L28.2489 11.1887L28.2616 11.2057L28.2734 11.2217L28.2844 11.2366L28.2943 11.2505L28.3114 11.2746L28.3249 11.2938L28.3346 11.308L28.3423 11.3197L36.601 23.2295H13.9473L16.9404 19.1383L19.6892 15.3812L22.3905 11.689L22.4097 11.6628L22.4289 11.6368L22.4481 11.6111L22.4671 11.5855L22.4863 11.5601L22.5054 11.535L22.5246 11.51L22.5436 11.4853L22.5627 11.4607L22.5817 11.4363L22.6008 11.412L22.6198 11.3881L22.6387 11.3643L22.6578 11.3407L22.6769 11.3172L22.6958 11.294L22.7147 11.2709L22.7337 11.248L22.7526 11.2252L22.7715 11.2028L22.7904 11.1805L22.8092 11.1583L22.8281 11.1363L22.847 11.1146L22.8658 11.093L22.8847 11.0715L22.9034 11.0503L22.9222 11.0293L22.941 11.0084L22.9597 10.9878L22.9785 10.9672L22.9972 10.9468L23.0158 10.9267L23.0346 10.9068L23.0532 10.887L23.0718 10.8673L23.0904 10.848L23.109 10.8286L23.1277 10.8095L23.1463 10.7906L23.1649 10.7718L23.1833 10.7534L23.202 10.7349L23.2204 10.7167L23.2389 10.6987L23.2573 10.6808L23.2758 10.6631L23.2943 10.6455L23.3127 10.6281L23.331 10.6109L23.3495 10.5939L23.3678 10.5771L23.3861 10.5604L23.4045 10.5438L23.4228 10.5274L23.4411 10.5112L23.4594 10.4952L23.4776 10.4792L23.4959 10.4636L23.5141 10.4481L23.5322 10.4327L23.5504 10.4175L23.5686 10.4024L23.5867 10.3875L23.6049 10.3727L23.6229 10.3582L23.6411 10.3437L23.6591 10.3294L23.6771 10.3153L23.6951 10.3014L23.7132 10.2876L23.7312 10.274L23.7491 10.2605L23.7671 10.2472L23.7849 10.2341L23.8028 10.2209L23.8207 10.2081L23.8386 10.1953L23.8563 10.1828L23.8742 10.1704L23.892 10.1582L23.9098 10.1461L23.9275 10.1342L23.9452 10.1223L23.9629 10.1107L23.9805 10.0991L23.9982 10.0878L24.0158 10.0765L24.0335 10.0654L24.0511 10.0547L24.0687 10.0439L24.0863 10.0332L24.1037 10.0227L24.1213 10.0124L24.1387 10.0022L24.1561 9.99214L24.1736 9.98224L24.191 9.97234L24.2084 9.96273L24.2259 9.95327L24.2431 9.94396L24.2604 9.93465L24.2777 9.92564L24.295 9.91677L24.3123 9.9079L24.3295 9.89918L24.3467 9.89076L24.364 9.88234L24.3811 9.87406L24.3982 9.86593L24.4154 9.85795L24.4323 9.85012L24.4495 9.84244L24.4665 9.83475L24.4835 9.82736L24.5004 9.81997L24.5174 9.81288L24.5344 9.80578L24.5514 9.79884L24.5682 9.79204L24.5851 9.78539L24.6019 9.77889L24.6188 9.77239L24.6356 9.76603L24.6523 9.75997L24.669 9.75391L24.6858 9.748L24.7025 9.74224L24.719 9.73647L24.7357 9.73101L24.7524 9.72554L24.769 9.72022L24.7855 9.71505L24.8021 9.71002L24.8186 9.705L24.835 9.70027L24.8515 9.69554L24.8679 9.69096L24.8843 9.68652L24.9007 9.68224L24.917 9.67795L24.9334 9.67381L24.9496 9.66982L24.9659 9.66598L24.9821 9.66214L24.9984 9.65859L25.0146 9.65505L25.0307 9.65165L25.0468 9.64825L25.0629 9.64514L25.079 9.64204L25.0951 9.63894L25.1111 9.63613L25.1272 9.63332L25.1431 9.63081L25.1591 9.62815L25.1749 9.62578L25.1908 9.62342L25.2066 9.6212L25.2224 9.61913L25.2382 9.61707L25.254 9.61529L25.2698 9.61337L25.2855 9.61175L25.3012 9.61012L25.3168 9.60864L25.3325 9.60731L25.348 9.60598L25.3636 9.6048L25.3791 9.60377L25.3947 9.60273L25.4102 9.60184L25.4255 9.6011L25.441 9.60037L25.4564 9.59977L25.4718 9.59933L25.487 9.59904L25.5023 9.59874L25.5175 9.59844L25.5328 9.5983H25.548L25.5632 9.59844ZM25.5356 10.3249L25.5248 10.3251L25.514 10.3252L25.5032 10.3254L25.4924 10.3257L25.4817 10.326L25.4707 10.3264L25.4599 10.3269L25.449 10.3275L25.4381 10.3281L25.4271 10.3288L25.4162 10.3295L25.4051 10.3304L25.3941 10.3313L25.3831 10.3322L25.3721 10.3332L25.3608 10.3344L25.3497 10.3356L25.3385 10.3369L25.3273 10.3382L25.3161 10.3397L25.3048 10.3412L25.2936 10.3427L25.2822 10.3445L25.2709 10.3461L25.2595 10.348L25.2481 10.3498L25.2366 10.3518L25.2252 10.3539L25.2137 10.356L25.202 10.3582L25.1905 10.3606L25.1789 10.3629L25.1672 10.3654L25.1555 10.368L25.1438 10.3706L25.132 10.3733L25.1202 10.3761L25.1084 10.379L25.0966 10.382L25.0846 10.3851L25.0727 10.3882L25.0607 10.3916L25.0486 10.3948L25.0365 10.3984L25.0244 10.4019L25.0122 10.4055L25 10.4092L24.9877 10.413L24.9755 10.417L24.9632 10.421L24.9508 10.4251L24.9384 10.4294L24.9258 10.4337L24.9134 10.4381L24.9009 10.4427L24.8883 10.4473L24.8756 10.452L24.8629 10.4569L24.8502 10.4618L24.8374 10.4668L24.8247 10.472L24.8118 10.4773L24.7988 10.4826L24.7858 10.4882L24.7728 10.4939L24.7598 10.4995L24.7467 10.5054L24.7335 10.5113L24.7204 10.5174L24.7071 10.5236L24.6938 10.5298L24.6805 10.5363L24.6672 10.5428L24.6538 10.5494L24.6402 10.5562L24.6267 10.5632L24.6131 10.5701L24.5995 10.5772L24.5858 10.5846L24.5721 10.592L24.5583 10.5995L24.5446 10.6071L24.5307 10.6149L24.5168 10.6229L24.5028 10.6309L24.4888 10.639L24.4747 10.6473L24.4606 10.6558L24.4465 10.6644L24.4322 10.6731L24.418 10.6818L24.4037 10.6909L24.3894 10.7L24.375 10.7093L24.3606 10.7186L24.3461 10.7282L24.3315 10.7379L24.317 10.7478L24.3022 10.7577L24.2876 10.7679L24.2728 10.7781L24.2581 10.7885L24.2433 10.799L24.2284 10.8097L24.2134 10.8206L24.1985 10.8315L24.1835 10.8428L24.1684 10.854L24.1533 10.8655L24.1381 10.8771L24.123 10.8889L24.1077 10.9009L24.0925 10.9128L24.0771 10.9251L24.0618 10.9375L24.0464 10.9501L24.0309 10.9628L24.0154 10.9756L23.9997 10.9886L23.9842 11.0019L23.9685 11.0152L23.9529 11.0287L23.9371 11.0424L23.9213 11.0563L23.9055 11.0704L23.8897 11.0846L23.8737 11.0989L23.8578 11.1134L23.8418 11.128L23.8257 11.1429L23.8098 11.1579L23.7935 11.1731L23.7774 11.1884L23.7612 11.2041L23.7451 11.2198L23.7287 11.2356L23.7124 11.2517L23.696 11.268L23.6796 11.2844L23.6632 11.3009L23.6467 11.3178L23.6302 11.3348L23.6136 11.3519L23.5971 11.3692L23.5804 11.3866L23.5638 11.4044L23.5471 11.4222L23.5303 11.4403L23.5136 11.4584L23.4968 11.4769L23.4799 11.4954L23.4629 11.5142L23.4461 11.5332L23.4291 11.5523L23.4121 11.5716L23.3952 11.5912L23.378 11.611L23.3609 11.6309L23.3438 11.6509L23.3266 11.6713L23.3095 11.6916L23.2922 11.7123L23.2749 11.7332L23.2576 11.7543L23.2402 11.7756L23.2229 11.797L23.2055 11.8186L23.1881 11.8405L23.1706 11.8625L23.1531 11.8848L23.1356 11.9073L23.1181 11.9299L23.1005 11.9526L23.0829 11.9757L23.0652 11.9989L23.0475 12.0224L23.0297 12.046L23.012 12.0698L22.9943 12.0939L22.9761 12.1186L20.2753 15.8104L17.5265 19.5675L15.3788 22.5029H35.2133L27.742 11.7286L27.7328 11.7148L27.7272 11.7066L27.7176 11.693L27.704 11.6739L27.6968 11.6637L27.6881 11.6519L27.6786 11.639L27.6683 11.6251L27.6571 11.6104L27.6451 11.5946L27.6323 11.578L27.6187 11.5607L27.6043 11.5424L27.5891 11.5235L27.5732 11.5038L27.5563 11.4834L27.5389 11.4624L27.5206 11.4409L27.5017 11.4187L27.4819 11.3959L27.4615 11.3727L27.4404 11.3491L27.4185 11.325L27.3959 11.3005L27.3727 11.2756L27.3484 11.2501L27.3365 11.2378L27.3243 11.2251L27.3117 11.2124L27.299 11.1995L27.2862 11.1865L27.2732 11.1737L27.26 11.1607L27.2467 11.1477L27.2333 11.1345L27.2197 11.1215L27.206 11.1083L27.1921 11.0952L27.1779 11.082L27.1637 11.0689L27.1494 11.0557L27.1349 11.0426L27.1203 11.0294L27.1055 11.0164L27.0906 11.0033L27.0756 10.9901L27.0605 10.977L27.0451 10.964L27.0296 10.951L27.0141 10.938L26.9984 10.9249L26.9826 10.9119L26.9667 10.8991L26.9506 10.8864L26.9343 10.8735L26.9181 10.8608L26.9017 10.8482L26.8852 10.8357L26.8685 10.8231L26.8518 10.8107L26.8348 10.7983L26.818 10.786L26.8008 10.7739L26.7837 10.7618L26.7663 10.7498L26.749 10.738L26.7314 10.7262L26.7138 10.7145L26.6962 10.703L26.6784 10.6914L26.6605 10.6801L26.6426 10.669L26.6245 10.6579L26.6064 10.6468L26.5881 10.636L26.57 10.6254L26.5515 10.6149L26.533 10.6044L26.5146 10.5942L26.496 10.584L26.4773 10.5741L26.4586 10.5644L26.4397 10.5546L26.4208 10.5451L26.4019 10.5358L26.3828 10.5267L26.3638 10.5178L26.3447 10.5089L26.3255 10.5004L26.3061 10.4919L26.2868 10.4837L26.2674 10.4755L26.2481 10.4676L26.2286 10.4599L26.2091 10.4523L26.1895 10.4451L26.1698 10.438L26.1502 10.4311L26.1304 10.4243L26.1106 10.4178L26.0908 10.4114L26.0709 10.4053L26.0509 10.3994L26.031 10.3937L26.011 10.3882L25.9909 10.3829L25.9709 10.3779L25.9506 10.373L25.9304 10.3684L25.9101 10.364L25.8898 10.3598L25.8695 10.3558L25.849 10.3521L25.8276 10.3484L25.8183 10.347L25.8081 10.3453L25.7977 10.3439L25.7876 10.3424L25.7772 10.3409L25.7669 10.3396L25.7565 10.3382L25.7462 10.3369L25.7359 10.3357L25.7254 10.3347L25.715 10.3337L25.7045 10.3326L25.6942 10.3316L25.6837 10.3307L25.6732 10.33L25.6627 10.3292L25.6523 10.3285L25.6418 10.3279L25.6311 10.3273L25.6206 10.3267L25.61 10.3263L25.5995 10.326L25.5889 10.3255L25.5783 10.3254L25.5676 10.3251L25.557 10.3249H25.5462H25.5356Z" fill="#45494E"/>
</svg>
