<svg width="27" height="18" viewBox="0 0 27 18" fill="none" xmlns="http://www.w3.org/2000/svg">
<path d="M25.4823 0.757345C25.2947 0.514803 25.0191 0.321837 24.7446 0.190955C24.4487 0.0499046 24.121 -0.0239258 23.7933 -0.0239258H2.22197C1.90602 -0.0239258 1.59079 0.044515 1.30341 0.175803C1.15966 0.241447 1.02242 0.322244 0.895698 0.416769C0.770855 0.509922 0.64276 0.616854 0.547235 0.74082C0.206852 1.13163 0 1.64179 0 2.19968V13.3674C0 13.5879 0.178601 13.7667 0.399019 13.7667C0.619438 13.7667 0.798039 13.5879 0.798039 13.3674V2.19968C0.798039 1.96706 0.854388 1.7475 0.953571 1.55331L11.6584 9.64441C12.0781 9.9616 12.5801 10.1201 13.082 10.12C13.5878 10.12 14.0937 9.95906 14.515 9.6374L21.9728 3.94299C22.148 3.80926 22.1817 3.55868 22.048 3.38336C21.9144 3.20809 21.664 3.17428 21.4888 3.30811L14.0309 9.00252C13.4751 9.42689 12.6973 9.42887 12.1394 9.00719L1.50497 0.969278C1.72148 0.842617 1.97106 0.774685 2.22197 0.774685H23.7933C24.0529 0.774685 24.3124 0.847346 24.5339 0.983057L22.971 2.1764C22.7958 2.31013 22.7621 2.5607 22.8958 2.73602C23.0295 2.9113 23.2798 2.94506 23.455 2.81128L25.0732 1.57574C25.1653 1.76428 25.2172 1.97601 25.2172 2.19968V15.8006C25.2172 16.5863 24.5784 17.2256 23.7932 17.2256H2.22197C1.43678 17.2256 0.797988 16.5863 0.797988 15.8006V14.8256C0.797988 14.6051 0.619387 14.4263 0.398969 14.4263C0.17855 14.4263 0 14.605 0 14.8255V15.8005C0 17.0266 0.996812 18.0241 2.22197 18.0241H23.7933C25.0185 18.0241 26.0153 17.0266 26.0153 15.8005V2.19968C26.0153 1.67316 25.8142 1.14592 25.4823 0.757345Z" fill="#FECA40"/>
</svg>
