<svg width="18" height="24" viewBox="0 0 18 24" fill="none" xmlns="http://www.w3.org/2000/svg">
<path d="M14.6553 19.326H12.7445C12.5382 19.326 12.371 19.4929 12.371 19.6987C12.371 19.9045 12.5382 20.0714 12.7445 20.0714H14.6553C15.5351 20.0714 16.2508 20.7854 16.2508 21.663C16.2508 22.5406 15.5351 23.2546 14.6553 23.2546H2.35537C1.47555 23.2546 0.759866 22.5406 0.759866 21.663C0.759866 20.7853 1.4756 20.0714 2.35537 20.0714H6.19371C7.35382 21.2073 8.22203 21.8812 8.27687 21.9234C8.34406 21.9753 8.42465 22.0012 8.50533 22.0012C8.58159 22.0012 8.65795 21.978 8.72317 21.9313C8.80756 21.8709 10.8131 20.4243 12.8489 18.046C14.0484 16.6448 15.005 15.2119 15.6924 13.7872C16.5587 11.9917 16.998 10.2033 16.998 8.472C16.998 6.27862 16.1609 4.19841 14.6411 2.6145C14.4984 2.46581 14.262 2.46066 14.1129 2.60302C13.9639 2.74533 13.9587 2.98125 14.1014 3.12994C15.4875 4.57444 16.2508 6.47161 16.2508 8.472C16.2508 10.0878 15.8379 11.7644 15.0233 13.4554C14.3658 14.8206 13.4468 16.1978 12.292 17.5489C10.7022 19.4089 9.09311 20.7103 8.51318 21.1564C7.93662 20.6835 6.3202 19.2981 4.723 17.3859C2.91506 15.2215 0.759913 11.9182 0.759913 8.472C0.759913 4.21148 4.23451 0.745312 8.50538 0.745312C10.0576 0.745312 11.555 1.20155 12.8357 2.0647C13.0067 2.17988 13.2389 2.13506 13.3543 1.96448C13.4698 1.79395 13.4249 1.5623 13.2539 1.44708C11.8492 0.500391 10.2071 0 8.50533 0C3.82251 0 0.0126953 3.80058 0.0126953 8.47205C0.0126953 10.1021 0.45223 11.8275 1.31908 13.6004C2.00573 15.0046 2.96115 16.4429 4.15895 17.8751C4.5997 18.4022 5.03891 18.8878 5.45749 19.326H2.35537C1.0636 19.326 0.0126953 20.3744 0.0126953 21.663C0.0126953 22.9516 1.0636 24 2.35537 24H14.6553C15.9471 24 16.998 22.9516 16.998 21.663C16.998 20.3744 15.9471 19.326 14.6553 19.326Z" fill="#FECA40"/>
<path d="M8.46653 4.63574C6.77747 4.6357 5.40332 6.00655 5.40332 7.69148C5.40332 9.3764 6.77747 10.7472 8.46653 10.7472C10.1555 10.7472 11.5297 9.3764 11.5297 7.69148C11.5297 6.00655 10.1555 4.63574 8.46653 4.63574ZM8.46653 10.0019C7.18946 10.0019 6.15045 8.96545 6.15045 7.69148C6.15045 6.41751 7.18946 5.38105 8.46653 5.38105C9.7436 5.38105 10.7826 6.41751 10.7826 7.69148C10.7826 8.96545 9.7436 10.0019 8.46653 10.0019Z" fill="#FECA40"/>
</svg>
