<svg width="21" height="21" viewBox="0 0 21 21" fill="none" xmlns="http://www.w3.org/2000/svg">
<path d="M20.4265 15.354L17.1353 12.0745C16.3884 11.3258 15.1759 11.3243 14.4272 12.0713C14.4261 12.0724 14.425 12.0734 14.4239 12.0745L12.5383 13.9602C12.3956 14.1032 12.1708 14.123 12.0054 14.007C10.9733 13.2858 10.0071 12.4744 9.11828 11.5826C8.3222 10.7883 7.58988 9.93263 6.92804 9.02339C6.80808 8.86006 6.82551 8.63358 6.96901 8.4905L8.90156 6.55795C9.64767 5.81039 9.64767 4.59994 8.90156 3.85238L5.61039 0.561212C4.85199 -0.163837 3.65739 -0.163837 2.89899 0.561212L1.85661 1.60359C0.282361 3.16013 -0.27963 5.47137 0.404243 7.57693C0.914557 9.11741 1.6359 10.5797 2.54762 11.9222C3.3684 13.153 4.31004 14.2986 5.3586 15.3423C6.49857 16.4904 7.76131 17.5096 9.12412 18.3816C10.6223 19.3592 12.2672 20.0907 13.9965 20.5484C14.441 20.658 14.8973 20.713 15.3551 20.7124C16.9247 20.7028 18.4263 20.071 19.5306 18.9555L20.4266 18.0595C21.1726 17.312 21.1726 16.1016 20.4265 15.354ZM19.5972 17.2608C19.5965 17.2616 19.5957 17.2624 19.5949 17.2631L19.6007 17.2456L18.7047 18.1416C17.5535 19.3073 15.8769 19.787 14.2833 19.4065C12.6777 18.9768 11.1514 18.2927 9.76228 17.3803C8.47167 16.5555 7.27564 15.5912 6.19585 14.5049C5.20233 13.5186 4.30976 12.4357 3.53125 11.2722C2.67972 10.0203 2.00573 8.65658 1.52843 7.21972C0.981262 5.53176 1.43468 3.67957 2.69969 2.43522L3.74208 1.39284C4.03189 1.10172 4.50281 1.10069 4.79386 1.39051C4.79462 1.39126 4.79544 1.39202 4.79619 1.39284L8.08736 4.68401C8.37848 4.97382 8.37951 5.44474 8.08969 5.73579C8.08894 5.73655 8.08818 5.7373 8.08736 5.73812L6.15481 7.67067C5.6003 8.21914 5.53058 9.09071 5.99086 9.72037C6.68983 10.6796 7.46333 11.5823 8.30409 12.4201C9.24147 13.3615 10.2605 14.2179 11.3493 14.9793C11.9784 15.4181 12.8313 15.3441 13.3755 14.8036L15.2436 12.9062C15.5334 12.6151 16.0044 12.614 16.2954 12.9039C16.2962 12.9046 16.2969 12.9054 16.2977 12.9062L19.5948 16.2091C19.886 16.4988 19.887 16.9697 19.5972 17.2608Z" fill="#FECA40"/>
</svg>
