<svg width="21" height="21" viewBox="0 0 21 21" fill="none" xmlns="http://www.w3.org/2000/svg">
<path d="M20.4265 15.3537L17.1353 12.0742C16.3884 11.3254 15.1759 11.324 14.4272 12.0709C14.4261 12.072 14.425 12.0731 14.4239 12.0742L12.5383 13.9598C12.3956 14.1029 12.1708 14.1226 12.0054 14.0067C10.9733 13.2854 10.0071 12.4741 9.11828 11.5822C8.3222 10.7879 7.58988 9.9323 6.92804 9.02305C6.80808 8.85972 6.82551 8.63325 6.96901 8.49016L8.90156 6.55761C9.64767 5.81005 9.64767 4.5996 8.90156 3.85204L5.61039 0.560877C4.85199 -0.164172 3.65739 -0.164172 2.89899 0.560877L1.85661 1.60326C0.282361 3.1598 -0.27963 5.47103 0.404243 7.57659C0.914557 9.11707 1.6359 10.5794 2.54762 11.9219C3.3684 13.1526 4.31004 14.2983 5.3586 15.3419C6.49857 16.4901 7.76131 17.5092 9.12412 18.3813C10.6223 19.3589 12.2672 20.0904 13.9965 20.5481C14.441 20.6577 14.8973 20.7127 15.3551 20.712C16.9247 20.7024 18.4263 20.0706 19.5306 18.9552L20.4266 18.0592C21.1726 17.3117 21.1726 16.1012 20.4265 15.3537ZM19.5972 17.2605C19.5965 17.2612 19.5957 17.2621 19.5949 17.2628L19.6007 17.2452L18.7047 18.1412C17.5535 19.307 15.8769 19.7867 14.2833 19.4062C12.6777 18.9764 11.1514 18.2924 9.76228 17.38C8.47167 16.5551 7.27564 15.5909 6.19585 14.5045C5.20233 13.5183 4.30976 12.4353 3.53125 11.2719C2.67972 10.02 2.00573 8.65624 1.52843 7.21939C0.981262 5.53143 1.43468 3.67924 2.69969 2.43489L3.74208 1.3925C4.03189 1.10139 4.50281 1.10036 4.79386 1.39017C4.79462 1.39093 4.79544 1.39168 4.79619 1.3925L8.08736 4.68367C8.37848 4.97348 8.37951 5.44441 8.08969 5.73546C8.08894 5.73621 8.08818 5.73697 8.08736 5.73779L6.15481 7.67034C5.6003 8.21881 5.53058 9.09038 5.99086 9.72003C6.68983 10.6793 7.46333 11.582 8.30409 12.4198C9.24147 13.3612 10.2605 14.2176 11.3493 14.979C11.9784 15.4178 12.8313 15.3438 13.3755 14.8033L15.2436 12.9059C15.5334 12.6147 16.0044 12.6137 16.2954 12.9035C16.2962 12.9043 16.2969 12.905 16.2977 12.9059L19.5948 16.2088C19.886 16.4985 19.887 16.9694 19.5972 17.2605Z" fill="#787878"/>
</svg>
