<svg width="22" height="22" viewBox="0 0 22 22" fill="none" xmlns="http://www.w3.org/2000/svg">
<path d="M10.8143 0.361816C13.6242 0.361816 15.9102 2.61075 15.9102 5.37512C15.9102 8.13949 13.6242 10.3884 10.8143 10.3884C8.00444 10.3884 5.71848 8.13949 5.71848 5.37512C5.71848 2.61075 8.00444 0.361816 10.8143 0.361816ZM10.8143 9.22391C12.9715 9.22391 14.7265 7.49739 14.7265 5.37512C14.7265 3.25286 12.9715 1.52633 10.8143 1.52633C8.65719 1.52633 6.90216 3.25286 6.90216 5.37512C6.90216 7.49739 8.65711 9.22391 10.8143 9.22391Z" fill="#787878"/>
<path d="M6.46033 11.5146H15.576C16.9233 11.5146 18.2443 11.9688 19.2958 12.7934C19.5514 12.9939 19.5934 13.3602 19.3897 13.6117C19.186 13.863 18.8137 13.9044 18.558 13.704C17.7031 13.0335 16.6719 12.6792 15.576 12.6792H6.46033C3.82015 12.6792 1.67222 14.7923 1.67222 17.3897V20.2471C1.67222 20.2534 1.67737 20.2584 1.68376 20.2584H4.33923V17.4963C4.33923 17.1748 4.60423 16.9141 4.93108 16.9141C5.25792 16.9141 5.52292 17.1748 5.52292 17.4963V20.2584H16.3807V17.4963C16.3807 17.1748 16.6457 16.9141 16.9726 16.9141C17.2994 16.9141 17.5644 17.1748 17.5644 17.4963V20.2584H20.3526C20.3589 20.2584 20.3641 20.2534 20.3641 20.2471V17.3897C20.3641 16.592 20.158 15.8042 19.7679 15.1113C19.6095 14.8299 19.7129 14.4756 19.9989 14.3198C20.2848 14.164 20.645 14.2657 20.8034 14.5471C21.2904 15.4122 21.5479 16.3952 21.5479 17.3897V20.2471C21.5479 20.8954 21.0117 21.4229 20.3527 21.4229H1.68376C1.02469 21.4229 0.488525 20.8954 0.488525 20.2471V17.3897C0.488525 14.1502 3.16747 11.5146 6.46033 11.5146Z" fill="#787878"/>
</svg>
